<svg width="234" height="315" viewBox="0 0 234 315" fill="none" xmlns="http://www.w3.org/2000/svg">
<g clip-path="url(#clip0_40_88)">
<path d="M13.3126 152.206C8.72393 153.333 4.55032 154.373 0.0219727 155.502C0.0219727 123.21 0.0219727 91.3229 0.0219727 58.933C2.07027 58.933 3.8581 58.9331 5.64593 58.933C27.9723 58.9311 50.2987 58.9598 72.625 58.9165C87.6299 58.8874 96.1483 50.2897 96.1471 35.3142C96.1462 23.8351 96.1469 12.356 96.1469 0.467957C109.996 0.467957 123.548 0.467957 137.854 0.467957C137.854 1.9921 137.854 3.58319 137.854 5.17429C137.854 15.1712 137.859 25.168 137.852 35.1649C137.841 50.4124 146.324 58.8964 161.718 58.9198C183.878 58.9534 206.038 58.9314 228.198 58.9332C229.997 58.9333 231.797 58.9332 233.926 58.9332C233.926 91.2214 233.926 123.111 233.926 155.477C191.033 143.219 152.1 150.582 116.998 178.665C86.6702 154.068 52.2454 145.01 13.3126 152.206Z" fill="#57503E"/>
<path d="M139.931 302.897C136.336 313.792 136.34 313.848 125.282 314.669C122.153 314.901 118.992 314.704 115.341 314.704C132.45 277.454 129.932 242.126 101.632 211.906C73.3432 181.698 38.4506 177.014 -0.198907 192.267C-0.198907 185.953 -0.394273 179.887 -0.0172743 173.857C0.0499017 172.782 2.34849 171.413 3.85747 170.926C37.773 159.983 69.7154 164.258 99.0205 184.534C136.663 210.58 152.861 257.904 139.931 302.897Z" fill="#3DAB39"/>
<path d="M63.7889 204.134C105.763 221.724 122.437 268.427 101.236 307.673C98.9175 311.964 96.5823 314.035 91.5682 312.179C87.4296 310.647 83.0516 309.762 78.3731 308.479C96.2241 283.128 97.9455 257.766 76.6027 235.222C55.3579 212.781 30.0882 213.159 3.94943 229.752C2.80125 223.565 1.5115 217.911 0.87502 212.185C0.733624 210.913 2.59729 208.818 4.04083 208.06C23.2072 198.002 43.0358 196.679 63.7889 204.134Z" fill="#3DAB3A"/>
<path d="M191.323 233.963C202.977 232.88 212.939 235.811 221.217 243.518C222.269 244.498 223.023 247.167 222.448 248.327C208.456 276.576 186.718 296.425 157.254 307.741C156.673 307.963 156.006 307.96 154.775 308.161C155.774 303.484 157.07 299.21 157.539 294.846C158.515 285.76 159.979 276.579 159.505 267.528C159.061 259.041 162.107 252.65 167.199 246.713C173.415 239.466 181.398 235.302 191.323 233.963Z" fill="#3CAB38"/>
<path d="M75.9114 266.464C77.2951 279.018 73.9828 289.604 65.7763 298.678C63.8072 300.855 62.1645 301.36 59.4023 299.742C38.4125 287.454 22.476 270.515 11.5522 248.779C10.3141 246.316 10.7894 245.064 12.7084 243.319C33.5281 224.389 68.1395 234.799 74.9781 262.12C75.3012 263.41 75.5679 264.716 75.9114 266.464Z" fill="#3BAB38"/>
<path d="M137.662 182.677C166.872 164.077 197.631 160.495 230.199 170.808C233.207 171.761 234.502 173.074 234.321 176.359C234.038 181.474 234.246 186.616 234.246 192.569C218.181 185.608 202.128 182.466 185.2 184.627C168.239 186.793 153.329 193.553 139.777 204.298C135.94 199.384 132.299 194.72 128.215 189.488C131.307 187.253 134.335 185.066 137.662 182.677Z" fill="#3DAB39"/>
<path d="M188.955 218.705C175.288 220.573 164.425 226.863 155.148 236.983C152.707 230.997 150.326 225.578 148.38 220.007C148.014 218.959 149.007 216.884 150.005 215.991C170.786 197.411 206.183 194.082 230.501 208.172C232.918 209.572 233.757 211.023 233.147 213.736C231.991 218.879 231.081 224.078 229.904 230.095C217.276 221.1 204.153 216.725 188.955 218.705Z" fill="#3DAB3A"/>
</g>
<defs>
<clipPath id="clip0_40_88">
<rect width="234" height="315" fill="white"/>
</clipPath>
</defs>
</svg>
