<svg width="32" height="32" viewBox="0 0 32 32" fill="none" xmlns="http://www.w3.org/2000/svg">
<path d="M25.3333 28L16 18.6667L12.8666 21.8C13.0444 22.1334 13.1666 22.4889 13.2333 22.8667C13.3 23.2445 13.3333 23.6222 13.3333 24C13.3333 25.4667 12.8111 26.7222 11.7666 27.7667C10.7222 28.8111 9.46663 29.3334 7.99996 29.3334C6.53329 29.3334 5.27774 28.8111 4.23329 27.7667C3.18885 26.7222 2.66663 25.4667 2.66663 24C2.66663 22.5334 3.18885 21.2778 4.23329 20.2334C5.27774 19.1889 6.53329 18.6667 7.99996 18.6667C8.37774 18.6667 8.75551 18.7 9.13329 18.7667C9.51107 18.8334 9.86663 18.9556 10.2 19.1334L13.3333 16L10.2 12.8667C9.86663 13.0445 9.51107 13.1667 9.13329 13.2334C8.75551 13.3 8.37774 13.3334 7.99996 13.3334C6.53329 13.3334 5.27774 12.8111 4.23329 11.7667C3.18885 10.7222 2.66663 9.46669 2.66663 8.00002C2.66663 6.53335 3.18885 5.2778 4.23329 4.23335C5.27774 3.18891 6.53329 2.66669 7.99996 2.66669C9.46663 2.66669 10.7222 3.18891 11.7666 4.23335C12.8111 5.2778 13.3333 6.53335 13.3333 8.00002C13.3333 8.3778 13.3 8.75558 13.2333 9.13335C13.1666 9.51113 13.0444 9.86669 12.8666 10.2L29.3333 26.6667V28H25.3333ZM20 14.6667L17.3333 12L25.3333 4.00002H29.3333V5.33335L20 14.6667ZM7.99996 10.6667C8.73329 10.6667 9.36107 10.4056 9.88329 9.88335C10.4055 9.36113 10.6666 8.73335 10.6666 8.00002C10.6666 7.26669 10.4055 6.63891 9.88329 6.11669C9.36107 5.59446 8.73329 5.33335 7.99996 5.33335C7.26663 5.33335 6.63885 5.59446 6.11663 6.11669C5.5944 6.63891 5.33329 7.26669 5.33329 8.00002C5.33329 8.73335 5.5944 9.36113 6.11663 9.88335C6.63885 10.4056 7.26663 10.6667 7.99996 10.6667ZM16 16.6667C16.1777 16.6667 16.3333 16.6 16.4666 16.4667C16.6 16.3334 16.6666 16.1778 16.6666 16C16.6666 15.8222 16.6 15.6667 16.4666 15.5334C16.3333 15.4 16.1777 15.3334 16 15.3334C15.8222 15.3334 15.6666 15.4 15.5333 15.5334C15.4 15.6667 15.3333 15.8222 15.3333 16C15.3333 16.1778 15.4 16.3334 15.5333 16.4667C15.6666 16.6 15.8222 16.6667 16 16.6667ZM7.99996 26.6667C8.73329 26.6667 9.36107 26.4056 9.88329 25.8834C10.4055 25.3611 10.6666 24.7334 10.6666 24C10.6666 23.2667 10.4055 22.6389 9.88329 22.1167C9.36107 21.5945 8.73329 21.3334 7.99996 21.3334C7.26663 21.3334 6.63885 21.5945 6.11663 22.1167C5.5944 22.6389 5.33329 23.2667 5.33329 24C5.33329 24.7334 5.5944 25.3611 6.11663 25.8834C6.63885 26.4056 7.26663 26.6667 7.99996 26.6667Z" fill="#E8EAED"/>
</svg>
