<svg width="29" height="29" viewBox="0 0 29 29" fill="none" xmlns="http://www.w3.org/2000/svg">
<g clip-path="url(#clip0_47_42)">
<path d="M13.5234 24.1594C12.2958 22.9318 11.3505 21.4513 10.6876 19.7179C10.0247 17.9845 9.69321 16.1357 9.69321 14.1715C9.69321 12.2074 10.0247 10.3586 10.6876 8.62517C11.3505 6.89178 12.2958 5.41128 13.5234 4.18366C13.7001 4.00688 13.9064 3.91849 14.1421 3.91849C14.3778 3.91849 14.584 4.00688 14.7608 4.18366L17.1473 6.57015C17.2848 6.70764 17.3609 6.87705 17.3756 7.07838C17.3904 7.27971 17.3437 7.45403 17.2357 7.60134L15.5563 10.0468C15.4188 10.2235 15.2813 10.3512 15.1438 10.4298C15.0063 10.5083 14.859 10.5476 14.7019 10.5476L11.8293 10.5624C11.6623 11.1221 11.5445 11.7065 11.4757 12.3154C11.407 12.9243 11.3775 13.5479 11.3873 14.1863C11.3873 14.7952 11.4241 15.3967 11.4978 15.9909C11.5715 16.585 11.6869 17.1767 11.844 17.766H14.6135C14.7903 17.766 14.972 17.8151 15.1586 17.9133C15.3452 18.0115 15.4974 18.1392 15.6152 18.2963L17.2357 20.7417C17.3339 20.9185 17.3756 21.1027 17.3609 21.2942C17.3462 21.4857 17.275 21.6453 17.1473 21.7729L14.7608 24.1594C14.584 24.3362 14.3778 24.4246 14.1421 24.4246C13.9064 24.4246 13.7001 24.3362 13.5234 24.1594ZM12.3891 8.88297H14.3336L15.4679 7.24779L14.1568 5.9367C13.8033 6.38846 13.4743 6.85495 13.1698 7.33618C12.8654 7.8174 12.6051 8.333 12.3891 8.88297ZM12.3891 19.4307C12.6051 19.9806 12.8629 20.5036 13.1625 20.9995C13.462 21.4955 13.7984 21.9595 14.1716 22.3917L15.4679 21.0953L14.3631 19.4307H12.3891Z" fill="#E8EAED"/>
</g>
<defs>
<clipPath id="clip0_47_42">
<rect width="20" height="20" fill="white" transform="translate(14.1421 0.0292969) rotate(45)"/>
</clipPath>
</defs>
</svg>
