<svg width="24" height="24" viewBox="0 0 24 24" fill="none" xmlns="http://www.w3.org/2000/svg">
<path d="M8 3C5.239 3 3 5.239 3 8V16C3 18.761 5.239 21 8 21H16C18.761 21 21 18.761 21 16V8C21 5.239 18.761 3 16 3H8ZM18 5C18.552 5 19 5.448 19 6C19 6.552 18.552 7 18 7C17.448 7 17 6.552 17 6C17 5.448 17.448 5 18 5ZM12 7C14.761 7 17 9.239 17 12C17 14.761 14.761 17 12 17C9.239 17 7 14.761 7 12C7 9.239 9.239 7 12 7ZM12 9C10.3432 9 9 10.3432 9 12C9 13.6569 10.3432 15 12 15C13.6569 15 15 13.6569 15 12C15 10.3432 13.6569 9 12 9Z" fill="white"/>
</svg>
