<svg width="32" height="32" viewBox="0 0 32 32" fill="none" xmlns="http://www.w3.org/2000/svg">
<path d="M16.3667 25.3333C16.6334 25.3111 16.8612 25.2055 17.05 25.0166C17.2389 24.8277 17.3334 24.6 17.3334 24.3333C17.3334 24.0222 17.2334 23.7722 17.0334 23.5833C16.8334 23.3944 16.5778 23.3111 16.2667 23.3333C15.3556 23.4 14.3889 23.15 13.3667 22.5833C12.3445 22.0166 11.7 20.9888 11.4334 19.5C11.3889 19.2555 11.2723 19.0555 11.0834 18.9C10.8945 18.7444 10.6778 18.6666 10.4334 18.6666C10.1223 18.6666 9.86671 18.7833 9.66671 19.0166C9.46671 19.25 9.40004 19.5222 9.46671 19.8333C9.84449 21.8555 10.7334 23.3 12.1334 24.1666C13.5334 25.0333 14.9445 25.4222 16.3667 25.3333ZM16 29.3333C12.9556 29.3333 10.4167 28.2888 8.38337 26.2C6.35004 24.1111 5.33337 21.5111 5.33337 18.4C5.33337 16.1777 6.21671 13.7611 7.98337 11.15C9.75004 8.53885 12.4223 5.71107 16 2.66663C19.5778 5.71107 22.25 8.53885 24.0167 11.15C25.7834 13.7611 26.6667 16.1777 26.6667 18.4C26.6667 21.5111 25.65 24.1111 23.6167 26.2C21.5834 28.2888 19.0445 29.3333 16 29.3333ZM16 26.6666C18.3112 26.6666 20.2223 25.8833 21.7334 24.3166C23.2445 22.75 24 20.7777 24 18.4C24 16.7777 23.3278 14.9444 21.9834 12.9C20.6389 10.8555 18.6445 8.62218 16 6.19996C13.3556 8.62218 11.3612 10.8555 10.0167 12.9C8.67226 14.9444 8.00004 16.7777 8.00004 18.4C8.00004 20.7777 8.7556 22.75 10.2667 24.3166C11.7778 25.8833 13.6889 26.6666 16 26.6666Z" fill="#E8EAED"/>
</svg>
