<svg width="36" height="36" viewBox="0 0 36 36" fill="none" xmlns="http://www.w3.org/2000/svg">
<path d="M7.8 31.5C6.875 31.5 6.09375 31.1813 5.45625 30.5438C4.81875 29.9063 4.5 29.125 4.5 28.2V7.65001C4.5 6.92501 4.8375 6.41876 5.5125 6.13126C6.1875 5.84376 6.775 5.95001 7.275 6.45001L10.65 9.82501L8.625 11.85L9.675 12.9L11.7 10.875L15.6 14.775L13.575 16.8L14.625 17.85L16.65 15.825L20.55 19.725L18.525 21.75L19.575 22.8L21.6 20.775L25.5 24.675L23.475 26.7L24.525 27.75L26.55 25.725L29.55 28.725C30.05 29.225 30.1563 29.8125 29.8688 30.4875C29.5813 31.1625 29.075 31.5 28.35 31.5H7.8ZM9 27H21.45L9 14.55V27Z" fill="white"/>
</svg>
