<svg width="25" height="24" viewBox="0 0 25 24" fill="none" xmlns="http://www.w3.org/2000/svg">
<path d="M12.142 22C10.7586 22 9.45863 21.7375 8.24197 21.2125C7.0253 20.6875 5.96697 19.975 5.06697 19.075C4.16697 18.175 3.45447 17.1167 2.92947 15.9C2.40447 14.6833 2.14197 13.3833 2.14197 12C2.14197 10.6167 2.40447 9.31667 2.92947 8.1C3.45447 6.88333 4.16697 5.825 5.06697 4.925C5.96697 4.025 7.0253 3.3125 8.24197 2.7875C9.45863 2.2625 10.7586 2 12.142 2C13.5253 2 14.8253 2.2625 16.042 2.7875C17.2586 3.3125 18.317 4.025 19.217 4.925C20.117 5.825 20.8295 6.88333 21.3545 8.1C21.8795 9.31667 22.142 10.6167 22.142 12C22.142 13.3833 21.8795 14.6833 21.3545 15.9C20.8295 17.1167 20.117 18.175 19.217 19.075C18.317 19.975 17.2586 20.6875 16.042 21.2125C14.8253 21.7375 13.5253 22 12.142 22ZM12.142 17.5C12.892 16.75 13.5586 15.975 14.142 15.175C14.642 14.4917 15.1003 13.7417 15.517 12.925C15.9336 12.1083 16.142 11.3 16.142 10.5C16.142 9.4 15.7503 8.45833 14.967 7.675C14.1836 6.89167 13.242 6.5 12.142 6.5C11.042 6.5 10.1003 6.89167 9.31697 7.675C8.53363 8.45833 8.14197 9.4 8.14197 10.5C8.14197 11.3 8.3503 12.1083 8.76697 12.925C9.18363 13.7417 9.64197 14.4917 10.142 15.175C10.7253 15.975 11.392 16.75 12.142 17.5ZM12.142 12C11.7253 12 11.3711 11.8542 11.0795 11.5625C10.7878 11.2708 10.642 10.9167 10.642 10.5C10.642 10.0833 10.7878 9.72917 11.0795 9.4375C11.3711 9.14583 11.7253 9 12.142 9C12.5586 9 12.9128 9.14583 13.2045 9.4375C13.4961 9.72917 13.642 10.0833 13.642 10.5C13.642 10.9167 13.4961 11.2708 13.2045 11.5625C12.9128 11.8542 12.5586 12 12.142 12Z" fill="#E8EAED"/>
</svg>
