<svg width="21" height="20" viewBox="0 0 21 20" fill="none" xmlns="http://www.w3.org/2000/svg">
<path d="M3.47526 16.6666C3.01693 16.6666 2.62457 16.5034 2.29818 16.177C1.97179 15.8506 1.80859 15.4583 1.80859 14.9999V4.99992C1.80859 4.54159 1.97179 4.14922 2.29818 3.82284C2.62457 3.49645 3.01693 3.33325 3.47526 3.33325H16.8086C17.2669 3.33325 17.6593 3.49645 17.9857 3.82284C18.3121 4.14922 18.4753 4.54159 18.4753 4.99992V14.9999C18.4753 15.4583 18.3121 15.8506 17.9857 16.177C17.6593 16.5034 17.2669 16.6666 16.8086 16.6666H3.47526ZM10.1419 10.8333L3.47526 6.66659V14.9999H16.8086V6.66659L10.1419 10.8333ZM10.1419 9.16658L16.8086 4.99992H3.47526L10.1419 9.16658ZM3.47526 6.66659V4.99992V14.9999V6.66659Z" fill="#E8EAED"/>
</svg>
